<svg width="12" height="13" viewBox="0 0 12 13" fill="none" xmlns="http://www.w3.org/2000/svg">
<path d="M11.7396 5.94656C11.9758 5.71799 12.0592 5.38254 11.9573 5.07071C11.8552 4.75888 11.5892 4.53628 11.2624 4.48904L8.35677 4.06984C8.23302 4.05195 8.12609 3.97488 8.07082 3.86346L6.77181 1.24927C6.62596 0.955574 6.32992 0.773056 6 0.773056C5.67032 0.773056 5.37428 0.955574 5.22843 1.24927L3.92918 3.86346C3.87391 3.97488 3.76674 4.05195 3.64299 4.06984L0.737401 4.48927C0.410847 4.53628 0.144845 4.75888 0.0427218 5.07071C-0.0591613 5.38254 0.0242195 5.71799 0.260425 5.94656L2.36272 7.98122C2.45235 8.06807 2.49344 8.19308 2.4723 8.31524L1.9761 11.1885C1.92035 11.5113 2.05131 11.8313 2.31827 12.0241C2.58499 12.2171 2.93221 12.2421 3.22465 12.0892L5.82315 10.7326C5.93392 10.6749 6.06608 10.6749 6.17685 10.7326L8.77559 12.0892C8.90247 12.1555 9.03991 12.1882 9.17664 12.1882C9.35421 12.1882 9.53107 12.1331 9.68197 12.0241C9.94893 11.8313 10.0799 11.5113 10.0241 11.1885L9.5277 8.31548C9.50656 8.19308 9.54765 8.0683 9.63727 7.98146L11.7396 5.94656ZM9.05433 8.39612L9.55053 11.2692C9.57552 11.4138 9.51905 11.5519 9.39939 11.6383C9.27948 11.7244 9.13026 11.7349 8.9993 11.6671L6.40056 10.3103C6.27537 10.2452 6.13745 10.2122 6 10.2122C5.86255 10.2122 5.72487 10.2452 5.59944 10.3105L3.00118 11.6671C2.86974 11.7349 2.72052 11.7244 2.60085 11.6383C2.48119 11.5519 2.42496 11.414 2.44971 11.2692L2.94591 8.39612C2.99373 8.11888 2.90122 7.83592 2.69841 7.6398L0.59587 5.6049C0.489902 5.50231 0.453859 5.35773 0.499754 5.21815C0.545409 5.07834 0.660028 4.98243 0.806364 4.9612L3.71171 4.542C3.99213 4.50168 4.23459 4.32704 4.35978 4.07461L5.65903 1.46042C5.72439 1.32872 5.85198 1.25023 5.99976 1.25023C6.14778 1.25023 6.27513 1.32872 6.34073 1.46042L7.63998 4.07461C7.76517 4.32704 8.00739 4.50168 8.2878 4.542L11.1934 4.9612C11.3397 4.98243 11.4544 5.07834 11.5 5.21815C11.5457 5.35773 11.5099 5.50231 11.4039 5.6049L9.30159 7.63956C9.09878 7.83592 9.00627 8.11865 9.05433 8.39612Z" fill="#9D2929"/>
</svg>
