<svg width="12" height="13" viewBox="0 0 12 13" fill="none" xmlns="http://www.w3.org/2000/svg">
<path d="M11.7396 5.94622C11.9758 5.71765 12.0592 5.38221 11.9573 5.07038C11.8552 4.75856 11.5892 4.53596 11.2624 4.48872L8.35684 4.06953C8.23309 4.05164 8.12617 3.97458 8.0709 3.86316L6.77192 1.24926C6.62606 0.955571 6.33003 0.773056 6.00012 0.773056C5.67045 0.773056 5.37442 0.955571 5.22856 1.24926L3.92934 3.8634C3.87407 3.97482 3.76691 4.05188 3.64316 4.06977L0.737627 4.48896C0.411079 4.53596 0.144842 4.7588 0.042721 5.07062C-0.0591601 5.38245 0.024219 5.71789 0.26042 5.94645L2.36268 7.98108C2.4523 8.06792 2.49339 8.19294 2.47225 8.31509L1.9763 11.1881C1.93233 11.441 1.99913 11.687 2.16396 11.8809C2.42011 12.1832 2.86728 12.2753 3.22482 12.0887L5.82327 10.7322C5.93188 10.6756 6.0686 10.6761 6.17697 10.7322L8.77566 12.0887C8.90205 12.1548 9.03685 12.1882 9.17597 12.1882C9.42996 12.1882 9.67072 12.0761 9.83628 11.8809C10.0014 11.687 10.0679 11.4405 10.0239 11.1881L9.52775 8.31509C9.50661 8.1927 9.5477 8.06792 9.63732 7.98108L11.7396 5.94622Z" fill="#9D2929"/>
</svg>
